<svg width="30" height="14" viewBox="0 0 30 14" fill="none" xmlns="http://www.w3.org/2000/svg">
<path d="M1.04338 7.24846C9.8174 6.98541 18.5992 7.18871 27.3516 7.8575C27.4974 7.87776 27.6457 7.84526 27.7696 7.76586C27.8935 7.68645 27.985 7.56538 28.0275 7.42447C28.07 7.28356 28.0608 7.1321 28.0015 6.9974C27.9421 6.8627 27.8366 6.75363 27.704 6.68987C24.4392 4.69997 21.2153 2.63925 17.9719 0.604757C17.3244 0.196537 16.5445 1.11306 17.2046 1.55322C18.9558 2.7195 20.6928 3.90341 22.4361 5.08061C24.1794 6.25781 25.9979 7.33539 27.7664 8.48474L28.0417 7.561C23.1288 7.9787 17.8499 8.60428 13.4676 11.0425C12.5407 11.5584 13.4016 13.0141 14.3509 12.6439C16.5766 11.7763 18.7189 10.7382 21.0077 10.0191C23.3231 9.26033 25.7216 8.78329 28.1512 8.59828C28.2527 8.58497 28.3482 8.54248 28.4261 8.47596C28.5039 8.40944 28.5608 8.32176 28.5898 8.22355C28.6188 8.12534 28.6187 8.02082 28.5894 7.92268C28.5602 7.82454 28.5031 7.737 28.4251 7.67067C26.6881 6.48676 25.005 5.23067 23.2489 4.07597C21.4929 2.92128 19.7243 1.77193 17.9719 0.604757L17.2043 1.55122C20.4955 3.60988 23.8032 5.63355 27.066 7.72845L27.5523 6.64644C18.7266 5.48421 9.79524 5.35854 0.94033 6.27197C0.810838 6.28563 0.69208 6.35018 0.610177 6.4514C0.528275 6.55263 0.489938 6.68225 0.503603 6.81174C0.517268 6.94123 0.581815 7.05999 0.683043 7.14189C0.78427 7.22379 0.913885 7.26213 1.04338 7.24846Z" fill="black"/>
<path d="M17.9719 0.604757C21.2153 2.63925 24.4392 4.69997 27.704 6.68987C27.8366 6.75363 27.9421 6.8627 28.0015 6.9974C28.0608 7.1321 28.07 7.28356 28.0275 7.42447C27.985 7.56538 27.8935 7.68645 27.7696 7.76586C27.6457 7.84526 27.4974 7.87776 27.3516 7.8575C18.5992 7.18871 9.8174 6.98541 1.04338 7.24846C0.913885 7.26213 0.78427 7.22379 0.683043 7.14189C0.581815 7.05999 0.517269 6.94123 0.503604 6.81174C0.489939 6.68225 0.528275 6.55263 0.610177 6.4514C0.692079 6.35018 0.810838 6.28563 0.94033 6.27197C9.79524 5.35854 18.7266 5.48421 27.5523 6.64644L27.066 7.72845C23.8032 5.63355 20.4955 3.60988 17.2043 1.55122L17.9719 0.604757ZM17.9719 0.604757C17.3244 0.196537 16.5445 1.11306 17.2046 1.55322C18.9558 2.7195 20.6928 3.90341 22.4361 5.08061C24.1794 6.25781 25.9979 7.33539 27.7664 8.48474L28.0417 7.561C23.1288 7.9787 17.8499 8.60428 13.4676 11.0425C12.5407 11.5584 13.4016 13.0141 14.3509 12.6439C16.5766 11.7763 18.7189 10.7382 21.0077 10.0191C23.3231 9.26033 25.7216 8.78329 28.1512 8.59828C28.2527 8.58497 28.3482 8.54248 28.4261 8.47596C28.5039 8.40944 28.5608 8.32176 28.5898 8.22355C28.6188 8.12534 28.6187 8.02082 28.5894 7.92268C28.5602 7.82454 28.5031 7.737 28.4251 7.67067C26.6881 6.48676 25.005 5.23067 23.2489 4.07597C21.4929 2.92128 19.7243 1.77193 17.9719 0.604757Z" stroke="black" stroke-width="1.00196"/>
</svg>
