<svg id="instagram-brands" xmlns="http://www.w3.org/2000/svg" width="22.927" height="22.922" viewBox="0 0 22.927 22.922">
  <path id="instagram-brands-2" data-name="instagram-brands" d="M11.391,37.409a5.877,5.877,0,1,0,5.877,5.877A5.868,5.868,0,0,0,11.391,37.409Zm0,9.7a3.821,3.821,0,1,1,3.821-3.821,3.828,3.828,0,0,1-3.821,3.821Zm7.488-9.938A1.371,1.371,0,1,1,17.508,35.8,1.368,1.368,0,0,1,18.879,37.169Zm3.892,1.391a6.784,6.784,0,0,0-1.852-4.8,6.828,6.828,0,0,0-4.8-1.852c-1.892-.107-7.565-.107-9.457,0a6.818,6.818,0,0,0-4.8,1.846,6.806,6.806,0,0,0-1.852,4.8C-.1,40.447-.1,46.12.006,48.012a6.784,6.784,0,0,0,1.852,4.8,6.837,6.837,0,0,0,4.8,1.852c1.892.107,7.565.107,9.457,0a6.783,6.783,0,0,0,4.8-1.852,6.828,6.828,0,0,0,1.852-4.8c.107-1.893.107-7.56,0-9.452ZM20.326,50.043a3.868,3.868,0,0,1-2.179,2.179c-1.509.6-5.089.46-6.756.46s-5.253.133-6.756-.46a3.868,3.868,0,0,1-2.179-2.179c-.6-1.509-.46-5.089-.46-6.757s-.133-5.253.46-6.757A3.868,3.868,0,0,1,4.634,34.35c1.509-.6,5.089-.46,6.756-.46s5.253-.133,6.756.46a3.868,3.868,0,0,1,2.179,2.179c.6,1.509.46,5.089.46,6.757S20.925,48.539,20.326,50.043Z" transform="translate(0.075 -31.825)" fill="#fff"/>
</svg>
